<svg width="48" height="48" viewBox="0 0 48 48" fill="none" xmlns="http://www.w3.org/2000/svg">
<path d="M0 14C0 6.26801 6.26801 0 14 0H34C41.732 0 48 6.26801 48 14V34C48 41.732 41.732 48 34 48H14C6.26801 48 0 41.732 0 34V14Z" fill="url(#paint0_linear_156_4831)"/>
<path d="M32 17H16C14.8954 17 14 17.8954 14 19V29C14 30.1046 14.8954 31 16 31H32C33.1046 31 34 30.1046 34 29V19C34 17.8954 33.1046 17 32 17Z" stroke="white" stroke-width="2" stroke-linecap="round" stroke-linejoin="round"/>
<path d="M14 22H34" stroke="white" stroke-width="2" stroke-linecap="round" stroke-linejoin="round"/>
<defs>
<linearGradient id="paint0_linear_156_4831" x1="0" y1="0" x2="48" y2="48" gradientUnits="userSpaceOnUse">
<stop stop-color="#FB2C36"/>
<stop offset="1" stop-color="#E7000B"/>
</linearGradient>
</defs>
</svg>
