<svg width="20" height="20" viewBox="0 0 20 20" fill="none" xmlns="http://www.w3.org/2000/svg">
<mask id="path-1-inside-1_156_4813" fill="white">
<path d="M0 10C0 4.47715 4.47715 0 10 0C15.5228 0 20 4.47715 20 10C20 15.5228 15.5228 20 10 20C4.47715 20 0 15.5228 0 10Z"/>
</mask>
<path d="M0 10C0 4.47715 4.47715 0 10 0C15.5228 0 20 4.47715 20 10C20 15.5228 15.5228 20 10 20C4.47715 20 0 15.5228 0 10Z" fill="#AD46FF"/>
<path d="M0 10M20 10M20 10M0 10M10 0M20 10M10 20M0 10M10 20V18C5.58172 18 2 14.4183 2 10H0H-2C-2 16.6274 3.37258 22 10 22V20ZM20 10H18C18 14.4183 14.4183 18 10 18V20V22C16.6274 22 22 16.6274 22 10H20ZM10 0V2C14.4183 2 18 5.58172 18 10H20H22C22 3.37258 16.6274 -2 10 -2V0ZM10 0V-2C3.37258 -2 -2 3.37258 -2 10H0H2C2 5.58172 5.58172 2 10 2V0Z" fill="#AD46FF" mask="url(#path-1-inside-1_156_4813)"/>
<g clip-path="url(#clip0_156_4813)">
<path d="M16.534 8.66666C16.8385 10.1609 16.6215 11.7143 15.9192 13.0679C15.217 14.4214 14.0719 15.4934 12.675 16.1049C11.2781 16.7164 9.71376 16.8305 8.24287 16.4282C6.77199 16.026 5.48347 15.1316 4.59219 13.8943C3.70091 12.657 3.26075 11.1515 3.34511 9.62892C3.42948 8.10635 4.03326 6.65872 5.05577 5.52744C6.07829 4.39616 7.45773 3.64961 8.96405 3.4123C10.4704 3.17498 12.0125 3.46123 13.3333 4.22333" stroke="white" stroke-width="1.33333" stroke-linecap="round" stroke-linejoin="round"/>
<path d="M8 9.33332L10 11.3333L16.6667 4.66666" stroke="white" stroke-width="1.33333" stroke-linecap="round" stroke-linejoin="round"/>
</g>
<defs>
<clipPath id="clip0_156_4813">
<rect width="16" height="16" fill="white" transform="translate(2 2)"/>
</clipPath>
</defs>
</svg>
