<svg width="16" height="16" viewBox="0 0 16 16" fill="none" xmlns="http://www.w3.org/2000/svg">
<path d="M13.3334 6.66665C13.3334 9.99531 9.64069 13.462 8.40069 14.5326C8.28517 14.6195 8.14455 14.6665 8.00002 14.6665C7.85549 14.6665 7.71487 14.6195 7.59935 14.5326C6.35935 13.462 2.66669 9.99531 2.66669 6.66665C2.66669 5.25216 3.22859 3.8956 4.22878 2.89541C5.22898 1.89522 6.58553 1.33331 8.00002 1.33331C9.41451 1.33331 10.7711 1.89522 11.7713 2.89541C12.7715 3.8956 13.3334 5.25216 13.3334 6.66665Z" stroke="white" stroke-width="1.33333" stroke-linecap="round" stroke-linejoin="round"/>
<path d="M8 8.66669C9.10457 8.66669 10 7.77126 10 6.66669C10 5.56212 9.10457 4.66669 8 4.66669C6.89543 4.66669 6 5.56212 6 6.66669C6 7.77126 6.89543 8.66669 8 8.66669Z" stroke="white" stroke-width="1.33333" stroke-linecap="round" stroke-linejoin="round"/>
</svg>
