<svg width="64" height="64" viewBox="0 0 64 64" fill="none" xmlns="http://www.w3.org/2000/svg">
<path d="M0 16C0 7.16344 7.16344 0 16 0H48C56.8366 0 64 7.16344 64 16V48C64 56.8366 56.8366 64 48 64H16C7.16344 64 0 56.8366 0 48V16Z" fill="white" fill-opacity="0.2"/>
<path d="M34.6667 40V24C34.6667 23.2927 34.3857 22.6145 33.8856 22.1144C33.3855 21.6143 32.7073 21.3333 32 21.3333H21.3334C20.6261 21.3333 19.9478 21.6143 19.4477 22.1144C18.9476 22.6145 18.6667 23.2927 18.6667 24V38.6666C18.6667 39.0203 18.8072 39.3594 19.0572 39.6095C19.3073 39.8595 19.6464 40 20 40H22.6667" stroke="white" stroke-width="2.66667" stroke-linecap="round" stroke-linejoin="round"/>
<path d="M36 40H28" stroke="white" stroke-width="2.66667" stroke-linecap="round" stroke-linejoin="round"/>
<path d="M41.3334 40H44C44.3536 40 44.6928 39.8595 44.9428 39.6095C45.1929 39.3594 45.3334 39.0203 45.3334 38.6667V33.8C45.3328 33.4974 45.2294 33.204 45.04 32.968L40.4 27.168C40.2753 27.0119 40.1171 26.8857 39.9371 26.799C39.7571 26.7122 39.5599 26.667 39.36 26.6667H34.6667" stroke="white" stroke-width="2.66667" stroke-linecap="round" stroke-linejoin="round"/>
<path d="M38.6667 42.6666C40.1394 42.6666 41.3333 41.4727 41.3333 40C41.3333 38.5272 40.1394 37.3333 38.6667 37.3333C37.1939 37.3333 36 38.5272 36 40C36 41.4727 37.1939 42.6666 38.6667 42.6666Z" stroke="white" stroke-width="2.66667" stroke-linecap="round" stroke-linejoin="round"/>
<path d="M25.3334 42.6666C26.8061 42.6666 28 41.4727 28 40C28 38.5272 26.8061 37.3333 25.3334 37.3333C23.8606 37.3333 22.6667 38.5272 22.6667 40C22.6667 41.4727 23.8606 42.6666 25.3334 42.6666Z" stroke="white" stroke-width="2.66667" stroke-linecap="round" stroke-linejoin="round"/>
</svg>
