<svg width="42" height="36" viewBox="0 0 42 36" fill="none" xmlns="http://www.w3.org/2000/svg">
<mask id="path-1-inside-1_198_646" fill="white">
<path d="M0 10C0 4.47715 4.47715 0 10 0H32C37.5228 0 42 4.47715 42 10V26C42 31.5228 37.5228 36 32 36H10C4.47715 36 0 31.5228 0 26V10Z"/>
</mask>
<path d="M10 0V1H32V0V-1H10V0ZM42 10H41V26H42H43V10H42ZM32 36V35H10V36V37H32V36ZM0 26H1V10H0H-1V26H0ZM10 36V35C5.02944 35 1 30.9706 1 26H0H-1C-1 32.0751 3.92487 37 10 37V36ZM42 26H41C41 30.9706 36.9706 35 32 35V36V37C38.0751 37 43 32.0751 43 26H42ZM32 0V1C36.9706 1 41 5.02944 41 10H42H43C43 3.92487 38.0751 -1 32 -1V0ZM10 0V-1C3.92487 -1 -1 3.92487 -1 10H0H1C1 5.02944 5.02944 1 10 1V0Z" fill="#D1D5DC" mask="url(#path-1-inside-1_198_646)"/>
<g clip-path="url(#clip0_198_646)">
<path d="M15 14H27" stroke="#4A5565" stroke-width="1.33333" stroke-linecap="round" stroke-linejoin="round"/>
<path d="M25.6667 14V23.3333C25.6667 24 25 24.6667 24.3333 24.6667H17.6667C17 24.6667 16.3333 24 16.3333 23.3333V14" stroke="#4A5565" stroke-width="1.33333" stroke-linecap="round" stroke-linejoin="round"/>
<path d="M18.3333 14V12.6666C18.3333 12 19 11.3333 19.6667 11.3333H22.3333C23 11.3333 23.6667 12 23.6667 12.6666V14" stroke="#4A5565" stroke-width="1.33333" stroke-linecap="round" stroke-linejoin="round"/>
<path d="M19.6667 17.3333V21.3333" stroke="#4A5565" stroke-width="1.33333" stroke-linecap="round" stroke-linejoin="round"/>
<path d="M22.3333 17.3333V21.3333" stroke="#4A5565" stroke-width="1.33333" stroke-linecap="round" stroke-linejoin="round"/>
</g>
<defs>
<clipPath id="clip0_198_646">
<rect width="16" height="16" fill="white" transform="translate(13 10)"/>
</clipPath>
</defs>
</svg>
