<svg width="16" height="16" viewBox="0 0 16 16" fill="none" xmlns="http://www.w3.org/2000/svg">
<path d="M7.68332 1.52997C7.71254 1.47094 7.75767 1.42126 7.81362 1.38652C7.86958 1.35178 7.93413 1.33337 7.99999 1.33337C8.06585 1.33337 8.1304 1.35178 8.18635 1.38652C8.24231 1.42126 8.28744 1.47094 8.31666 1.52997L9.85666 4.6493C9.95811 4.85461 10.1079 5.03224 10.2931 5.16694C10.4783 5.30164 10.6934 5.38938 10.92 5.42264L14.364 5.92664C14.4292 5.93609 14.4906 5.96362 14.541 6.0061C14.5914 6.04859 14.6289 6.10434 14.6493 6.16704C14.6697 6.22975 14.6722 6.29691 14.6564 6.36093C14.6406 6.42495 14.6072 6.48327 14.56 6.5293L12.0693 8.95464C11.9051 9.1147 11.7822 9.31229 11.7112 9.53039C11.6403 9.74849 11.6234 9.98056 11.662 10.2066L12.25 13.6333C12.2615 13.6985 12.2545 13.7657 12.2297 13.8271C12.2048 13.8885 12.1633 13.9417 12.1097 13.9806C12.0561 14.0196 11.9926 14.0426 11.9266 14.0472C11.8605 14.0518 11.7945 14.0378 11.736 14.0066L8.65732 12.388C8.45447 12.2815 8.22878 12.2258 7.99966 12.2258C7.77054 12.2258 7.54484 12.2815 7.34199 12.388L4.26399 14.0066C4.20554 14.0376 4.13959 14.0515 4.07362 14.0468C4.00766 14.0421 3.94433 14.019 3.89085 13.9801C3.83737 13.9412 3.79588 13.8881 3.77109 13.8268C3.74631 13.7655 3.73923 13.6984 3.75066 13.6333L4.33799 10.2073C4.37679 9.98112 4.35998 9.7489 4.28901 9.53067C4.21805 9.31243 4.09506 9.11474 3.93066 8.95464L1.43999 6.52997C1.39239 6.48399 1.35865 6.42557 1.34263 6.36135C1.32661 6.29714 1.32895 6.22971 1.34938 6.16676C1.3698 6.10381 1.4075 6.04786 1.45817 6.00529C1.50885 5.96272 1.57046 5.93524 1.63599 5.92597L5.07932 5.42264C5.30616 5.38964 5.52158 5.30201 5.70705 5.16729C5.89251 5.03258 6.04246 4.85482 6.14399 4.6493L7.68332 1.52997Z" fill="#FDC700" stroke="#FDC700" stroke-width="1.33333" stroke-linecap="round" stroke-linejoin="round"/>
</svg>
