<svg width="50" height="50" viewBox="0 0 50 50" fill="none" xmlns="http://www.w3.org/2000/svg">
<mask id="path-1-inside-1_134_105" fill="white">
<path d="M0 10C0 4.47715 4.47715 0 10 0H40C45.5228 0 50 4.47715 50 10V40C50 45.5228 45.5228 50 40 50H10C4.47715 50 0 45.5228 0 40V10Z"/>
</mask>
<path d="M10 0V1H40V0V-1H10V0ZM50 10H49V40H50H51V10H50ZM40 50V49H10V50V51H40V50ZM0 40H1V10H0H-1V40H0ZM10 50V49C5.02944 49 1 44.9706 1 40H0H-1C-1 46.0751 3.92487 51 10 51V50ZM50 40H49C49 44.9706 44.9706 49 40 49V50V51C46.0751 51 51 46.0751 51 40H50ZM40 0V1C44.9706 1 49 5.02944 49 10H50H51C51 3.92487 46.0751 -1 40 -1V0ZM10 0V-1C3.92487 -1 -1 3.92487 -1 10H0H1C1 5.02944 5.02944 1 10 1V0Z" fill="black" fill-opacity="0.1" mask="url(#path-1-inside-1_134_105)"/>
<path d="M32 27C33.49 25.54 35 23.79 35 21.5C35 20.0413 34.4205 18.6424 33.3891 17.6109C32.3576 16.5795 30.9587 16 29.5 16C27.74 16 26.5 16.5 25 18C23.5 16.5 22.26 16 20.5 16C19.0413 16 17.6424 16.5795 16.6109 17.6109C15.5795 18.6424 15 20.0413 15 21.5C15 23.8 16.5 25.55 18 27L25 34L32 27Z" stroke="#0A0A0A" stroke-width="2" stroke-linecap="round" stroke-linejoin="round"/>
</svg>
