<svg width="288" height="20" viewBox="0 0 288 20" fill="none" xmlns="http://www.w3.org/2000/svg">
<path d="M95.2682 1.91249C95.3047 1.83871 95.3612 1.7766 95.4311 1.73318C95.501 1.68976 95.5817 1.66675 95.6641 1.66675C95.7464 1.66675 95.8271 1.68976 95.897 1.73318C95.967 1.7766 96.0234 1.83871 96.0599 1.91249L97.9849 5.81166C98.1117 6.0683 98.2989 6.29033 98.5304 6.4587C98.7619 6.62707 99.0308 6.73675 99.3141 6.77833L103.619 7.40833C103.701 7.42015 103.777 7.45455 103.84 7.50766C103.903 7.56076 103.95 7.63045 103.976 7.70883C104.001 7.78721 104.004 7.87116 103.985 7.95119C103.965 8.03121 103.923 8.10412 103.864 8.16166L100.751 11.1933C100.545 11.3934 100.392 11.6404 100.303 11.913C100.214 12.1856 100.193 12.4757 100.242 12.7583L100.977 17.0417C100.991 17.1232 100.982 17.2071 100.951 17.2839C100.92 17.3607 100.868 17.4272 100.801 17.4758C100.734 17.5245 100.655 17.5533 100.572 17.5591C100.49 17.5648 100.407 17.5472 100.334 17.5083L96.4857 15.485C96.2322 15.3518 95.95 15.2823 95.6636 15.2823C95.3772 15.2823 95.0951 15.3518 94.8416 15.485L90.9941 17.5083C90.921 17.547 90.8386 17.5644 90.7561 17.5585C90.6736 17.5527 90.5945 17.5238 90.5276 17.4752C90.4608 17.4266 90.4089 17.3601 90.3779 17.2835C90.347 17.2069 90.3381 17.1231 90.3524 17.0417L91.0866 12.7592C91.1351 12.4764 91.114 12.1862 91.0253 11.9134C90.9366 11.6406 90.7829 11.3935 90.5774 11.1933L87.4641 8.16249C87.4046 8.10502 87.3624 8.03199 87.3424 7.95172C87.3223 7.87145 87.3253 7.78717 87.3508 7.70849C87.3763 7.6298 87.4234 7.55986 87.4868 7.50665C87.5501 7.45343 87.6271 7.41907 87.7091 7.40749L92.0132 6.77833C92.2968 6.73708 92.566 6.62754 92.7979 6.45915C93.0297 6.29076 93.2171 6.06855 93.3441 5.81166L95.2682 1.91249Z" fill="#FDC700" stroke="#FDC700" stroke-width="1.66667" stroke-linecap="round" stroke-linejoin="round"/>
<path d="M119.268 1.91249C119.305 1.83871 119.361 1.7766 119.431 1.73318C119.501 1.68976 119.582 1.66675 119.664 1.66675C119.746 1.66675 119.827 1.68976 119.897 1.73318C119.967 1.7766 120.023 1.83871 120.06 1.91249L121.985 5.81166C122.112 6.0683 122.299 6.29033 122.53 6.4587C122.762 6.62707 123.031 6.73675 123.314 6.77833L127.619 7.40833C127.701 7.42015 127.777 7.45455 127.84 7.50766C127.903 7.56076 127.95 7.63045 127.976 7.70883C128.001 7.78721 128.004 7.87116 127.985 7.95119C127.965 8.03121 127.923 8.10412 127.864 8.16166L124.751 11.1933C124.545 11.3934 124.392 11.6404 124.303 11.913C124.214 12.1856 124.193 12.4757 124.242 12.7583L124.977 17.0417C124.991 17.1232 124.982 17.2071 124.951 17.2839C124.92 17.3607 124.868 17.4272 124.801 17.4758C124.734 17.5245 124.655 17.5533 124.572 17.5591C124.49 17.5648 124.407 17.5472 124.334 17.5083L120.486 15.485C120.232 15.3518 119.95 15.2823 119.664 15.2823C119.377 15.2823 119.095 15.3518 118.842 15.485L114.994 17.5083C114.921 17.547 114.839 17.5644 114.756 17.5585C114.674 17.5527 114.594 17.5238 114.528 17.4752C114.461 17.4266 114.409 17.3601 114.378 17.2835C114.347 17.2069 114.338 17.1231 114.352 17.0417L115.087 12.7592C115.135 12.4764 115.114 12.1862 115.025 11.9134C114.937 11.6406 114.783 11.3935 114.577 11.1933L111.464 8.16249C111.405 8.10502 111.362 8.03199 111.342 7.95172C111.322 7.87145 111.325 7.78717 111.351 7.70849C111.376 7.6298 111.423 7.55986 111.487 7.50665C111.55 7.45343 111.627 7.41907 111.709 7.40749L116.013 6.77833C116.297 6.73708 116.566 6.62754 116.798 6.45915C117.03 6.29076 117.217 6.06855 117.344 5.81166L119.268 1.91249Z" fill="#FDC700" stroke="#FDC700" stroke-width="1.66667" stroke-linecap="round" stroke-linejoin="round"/>
<path d="M143.268 1.91249C143.305 1.83871 143.361 1.7766 143.431 1.73318C143.501 1.68976 143.582 1.66675 143.664 1.66675C143.746 1.66675 143.827 1.68976 143.897 1.73318C143.967 1.7766 144.023 1.83871 144.06 1.91249L145.985 5.81166C146.112 6.0683 146.299 6.29033 146.53 6.4587C146.762 6.62707 147.031 6.73675 147.314 6.77833L151.619 7.40833C151.701 7.42015 151.777 7.45455 151.84 7.50766C151.903 7.56076 151.95 7.63045 151.976 7.70883C152.001 7.78721 152.004 7.87116 151.985 7.95119C151.965 8.03121 151.923 8.10412 151.864 8.16166L148.751 11.1933C148.545 11.3934 148.392 11.6404 148.303 11.913C148.214 12.1856 148.193 12.4757 148.242 12.7583L148.977 17.0417C148.991 17.1232 148.982 17.2071 148.951 17.2839C148.92 17.3607 148.868 17.4272 148.801 17.4758C148.734 17.5245 148.655 17.5533 148.572 17.5591C148.49 17.5648 148.407 17.5472 148.334 17.5083L144.486 15.485C144.232 15.3518 143.95 15.2823 143.664 15.2823C143.377 15.2823 143.095 15.3518 142.842 15.485L138.994 17.5083C138.921 17.547 138.839 17.5644 138.756 17.5585C138.674 17.5527 138.594 17.5238 138.528 17.4752C138.461 17.4266 138.409 17.3601 138.378 17.2835C138.347 17.2069 138.338 17.1231 138.352 17.0417L139.087 12.7592C139.135 12.4764 139.114 12.1862 139.025 11.9134C138.937 11.6406 138.783 11.3935 138.577 11.1933L135.464 8.16249C135.405 8.10502 135.362 8.03199 135.342 7.95172C135.322 7.87145 135.325 7.78717 135.351 7.70849C135.376 7.6298 135.423 7.55986 135.487 7.50665C135.55 7.45343 135.627 7.41907 135.709 7.40749L140.013 6.77833C140.297 6.73708 140.566 6.62754 140.798 6.45915C141.03 6.29076 141.217 6.06855 141.344 5.81166L143.268 1.91249Z" fill="#FDC700" stroke="#FDC700" stroke-width="1.66667" stroke-linecap="round" stroke-linejoin="round"/>
<path d="M167.268 1.91249C167.305 1.83871 167.361 1.7766 167.431 1.73318C167.501 1.68976 167.582 1.66675 167.664 1.66675C167.746 1.66675 167.827 1.68976 167.897 1.73318C167.967 1.7766 168.023 1.83871 168.06 1.91249L169.985 5.81166C170.112 6.0683 170.299 6.29033 170.53 6.4587C170.762 6.62707 171.031 6.73675 171.314 6.77833L175.619 7.40833C175.701 7.42015 175.777 7.45455 175.84 7.50766C175.903 7.56076 175.95 7.63045 175.976 7.70883C176.001 7.78721 176.004 7.87116 175.985 7.95119C175.965 8.03121 175.923 8.10412 175.864 8.16166L172.751 11.1933C172.545 11.3934 172.392 11.6404 172.303 11.913C172.214 12.1856 172.193 12.4757 172.242 12.7583L172.977 17.0417C172.991 17.1232 172.982 17.2071 172.951 17.2839C172.92 17.3607 172.868 17.4272 172.801 17.4758C172.734 17.5245 172.655 17.5533 172.572 17.5591C172.49 17.5648 172.407 17.5472 172.334 17.5083L168.486 15.485C168.232 15.3518 167.95 15.2823 167.664 15.2823C167.377 15.2823 167.095 15.3518 166.842 15.485L162.994 17.5083C162.921 17.547 162.839 17.5644 162.756 17.5585C162.674 17.5527 162.594 17.5238 162.528 17.4752C162.461 17.4266 162.409 17.3601 162.378 17.2835C162.347 17.2069 162.338 17.1231 162.352 17.0417L163.087 12.7592C163.135 12.4764 163.114 12.1862 163.025 11.9134C162.937 11.6406 162.783 11.3935 162.577 11.1933L159.464 8.16249C159.405 8.10502 159.362 8.03199 159.342 7.95172C159.322 7.87145 159.325 7.78717 159.351 7.70849C159.376 7.6298 159.423 7.55986 159.487 7.50665C159.55 7.45343 159.627 7.41907 159.709 7.40749L164.013 6.77833C164.297 6.73708 164.566 6.62754 164.798 6.45915C165.03 6.29076 165.217 6.06855 165.344 5.81166L167.268 1.91249Z" fill="#FDC700" stroke="#FDC700" stroke-width="1.66667" stroke-linecap="round" stroke-linejoin="round"/>
<path d="M191.268 1.91249C191.305 1.83871 191.361 1.7766 191.431 1.73318C191.501 1.68976 191.582 1.66675 191.664 1.66675C191.746 1.66675 191.827 1.68976 191.897 1.73318C191.967 1.7766 192.023 1.83871 192.06 1.91249L193.985 5.81166C194.112 6.0683 194.299 6.29033 194.53 6.4587C194.762 6.62707 195.031 6.73675 195.314 6.77833L199.619 7.40833C199.701 7.42015 199.777 7.45455 199.84 7.50766C199.903 7.56076 199.95 7.63045 199.976 7.70883C200.001 7.78721 200.004 7.87116 199.985 7.95119C199.965 8.03121 199.923 8.10412 199.864 8.16166L196.751 11.1933C196.545 11.3934 196.392 11.6404 196.303 11.913C196.214 12.1856 196.193 12.4757 196.242 12.7583L196.977 17.0417C196.991 17.1232 196.982 17.2071 196.951 17.2839C196.92 17.3607 196.868 17.4272 196.801 17.4758C196.734 17.5245 196.655 17.5533 196.572 17.5591C196.49 17.5648 196.407 17.5472 196.334 17.5083L192.486 15.485C192.232 15.3518 191.95 15.2823 191.664 15.2823C191.377 15.2823 191.095 15.3518 190.842 15.485L186.994 17.5083C186.921 17.547 186.839 17.5644 186.756 17.5585C186.674 17.5527 186.594 17.5238 186.528 17.4752C186.461 17.4266 186.409 17.3601 186.378 17.2835C186.347 17.2069 186.338 17.1231 186.352 17.0417L187.087 12.7592C187.135 12.4764 187.114 12.1862 187.025 11.9134C186.937 11.6406 186.783 11.3935 186.577 11.1933L183.464 8.16249C183.405 8.10502 183.362 8.03199 183.342 7.95172C183.322 7.87145 183.325 7.78717 183.351 7.70849C183.376 7.6298 183.423 7.55986 183.487 7.50665C183.55 7.45343 183.627 7.41907 183.709 7.40749L188.013 6.77833C188.297 6.73708 188.566 6.62754 188.798 6.45915C189.03 6.29076 189.217 6.06855 189.344 5.81166L191.268 1.91249Z" fill="#FDC700" stroke="#FDC700" stroke-width="1.66667" stroke-linecap="round" stroke-linejoin="round"/>
</svg>
